<?xml version="1.0" encoding="UTF-8" standalone="no"?>
<svg width="66px" height="44px" viewBox="0 0 66 44" version="1.1" xmlns="http://www.w3.org/2000/svg" xmlns:xlink="http://www.w3.org/1999/xlink" xmlns:sketch="http://www.bohemiancoding.com/sketch/ns">
    <!-- Generator: Sketch 3.4.4 (17249) - http://www.bohemiancoding.com/sketch -->
    <title>pic_logo</title>
    <desc>Created with Sketch.</desc>
    <defs></defs>
    <g id="首页" stroke="none" stroke-width="1" fill="none" fill-rule="evenodd" sketch:type="MSPage">
        <g id="logo-copy" sketch:type="MSLayerGroup">
            <path d="M44.7204706,17.0805161 L64.8028235,13.9838387 L63.4842353,25.9663871 C63.2534118,28.0780323 61.488,30.0665484 59.5874118,30.3617742 L52.8952941,31.3929355 L53.2358824,28.3054839 L54.5890588,28.0964839 C55.1368235,28.0134516 55.6711765,27.4105806 55.7375294,26.8027419 L56.6749412,18.271 L51.8107059,19.021129 L49.7428235,37.8286452 L63.3967059,35.8479355 L62.994,39.2998065 L41.5792941,42.4277097 L44.7204706,17.0805161" id="Fill-1" fill="#1A1918" sketch:type="MSShapeGroup"></path>
            <path d="M65.9583529,5.27077419 L62.3805882,5.74625806 L62.8584706,1.87780645 L59.6936471,2.32029032 L59.2129412,6.21570968 L55.9284706,6.66777419 L55.5734118,9.67254839 L58.8808235,9.20025806 L58.4982353,12.7142258 L61.5776471,12.254 L62.0096471,8.75316129 L65.5764706,8.20564516 L65.9583529,5.27077419" id="Fill-2" fill="#FFF101" sketch:type="MSShapeGroup"></path>
            <path d="M54.4644706,6.93887097 L45.4097647,8.10558065 L45.8308235,4.56783871 L39.7997647,5.51312903 L39.3691765,9.05832258 L31.9637647,10.0990645 L31.6178824,13.0775806 L39.0229412,12.0354194 L38.6396471,15.2598387 L44.6717647,14.3127742 L45.0557647,11.088 L54.0843529,9.86380645 L54.4644706,6.93887097" id="Fill-3" fill="#1A1918" sketch:type="MSShapeGroup"></path>
            <path d="M19.5194118,0.214322581 L17.2231765,5.22216129 L35.0424706,2.68151613 L34.7212941,5.38396774 L15.8982353,8.06619355 L13.7858824,12.6638387 L32.1945882,10.0405161 L30.0021176,28.4832581 C29.7829412,30.3305484 28.1463529,32.0664194 26.3812941,32.3176452 L18.9430588,33.3775484 L19.2642353,30.6779355 L20.6837647,30.4742581 C21.2371765,30.3972581 21.7401176,29.8703226 21.8036471,29.3359355 L22.1216471,26.672871 L12.4694118,28.0489355 L11.712,34.410129 L3.57988235,35.5683226 L4.86458824,24.7649032 L0.124588235,25.4422903 L7.52541176,9.25987097 L1.95423529,10.0532903 L2.27576471,7.35367742 L8.81647059,6.42116129 L11.1123529,1.41296774 L19.5194118,0.214322581 L19.5194118,0.214322581 Z M12.7902353,25.3464839 L22.4431765,23.9714839 L22.8737647,20.3457419 L13.2215294,21.7214516 L12.7902353,25.3464839 L12.7902353,25.3464839 Z M13.5427059,19.021129 L23.1952941,17.6454194 L23.6396471,13.9142903 L13.9845882,15.2903548 L13.5427059,19.021129 L13.5427059,19.021129 Z" id="Fill-4" fill="#1A1918" sketch:type="MSShapeGroup"></path>
            <path d="M31.6178824,43.8232903 L34.8275294,28.6950968 L41.028,27.7175161 L37.9810588,42.8190968 L31.6178824,43.8232903" id="Fill-5" fill="#1A1918" sketch:type="MSShapeGroup"></path>
            <path d="M41.5002353,23.2752903 L41.1554118,26.5220645 L33.4330588,26.7314194 L33.7796471,23.4832258 L41.5002353,23.2752903" id="Fill-6" fill="#1A1918" sketch:type="MSShapeGroup"></path>
            <path d="M42.0095294,18.4874516 L41.6654118,21.7352903 L33.9236471,22.1156774 L34.2868235,18.6968065 L42.0095294,18.4874516" id="Fill-7" fill="#1A1918" sketch:type="MSShapeGroup"></path>
        </g>
    </g>
</svg>